<svg xmlns="http://www.w3.org/2000/svg" viewBox="0 0 640 512">
    <g
       id="g8915"
       transform="translate(-700,-50)">
      <path
         class="fa-primary"
         d="m 682.42574,137.0434 c -21.03437,0 -38.1,17.06563 -38.1,38.1 0,21.03438 17.05504,38.1 38.1,38.1 21.04496,0 38.1,-17.05504 38.1,-38.1 0,-21.04496 -17.06562,-38.1 -38.1,-38.1 z"
         id="path947"
         style="fill:#800080;stroke-width:0.264583"
         />
      <path
         class="fa-secondary"
         d="m 640.99199,196.31007 h -64.39958 c -4.67519,0 -8.46667,-3.79148 -8.46667,-8.46667 0,-4.67519 3.79148,-8.46666 8.46667,-8.46666 h 59.47833 c -0.13229,-1.4023 -0.21166,-2.80459 -0.21166,-4.23334 0,-21.30954 14.32983,-39.23771 33.86666,-44.7675 V 90.476737 c 0,-7.014104 -5.68854,-12.7 -12.7,-12.7 h -80.43333 c -14.02821,0 -25.4,11.371792 -25.4,25.400003 v 84.66666 c 0,14.02821 11.37179,25.4 25.4,25.4 h 79.11042 c -6.19125,-4.33916 -11.2448,-10.16 -14.71084,-16.93333 z"
         id="path949"
         style="fill:#800080;stroke-width:0.264583" />
      <path
         class="fa-primary"
         d="m 696.12389,194.17852 h -6.57336 v -46.01357 c 0,-3.63383 -2.94364,-6.57336 -6.57337,-6.57336 h -13.14673 c -3.62973,0 -6.57337,2.93953 -6.57337,6.57336 0,3.63384 2.94364,6.3885 6.57337,6.3885 h 6.57336 v 39.44019 h -6.57336 c -3.62973,0 -6.57337,2.93953 -6.57337,6.57337 0,3.63384 2.94364,6.57337 6.57337,6.57337 h 26.29346 c 3.62973,0 6.57337,-2.93953 6.57337,-6.57337 0,-3.63384 -2.93747,-6.38849 -6.57337,-6.38849 z"
         id="path1049"
         style="fill:#e6e6e6;stroke-width:0.205418" />
      <path
         class="fa-secondary"
         d="m 682.97716,128.44486 c 5.44562,0 9.86005,-4.41443 9.86005,-9.86005 0,-5.44563 -4.41648,-9.858 -9.86005,-9.858 -5.44357,0 -9.86005,4.41443 -9.86005,9.86005 0,5.44562 4.41443,9.858 9.86005,9.858 z"
         id="path1051"
         style="fill:#800080;fill-opacity:1;stroke-width:0.205418" />
      <path
         style="fill:#800080;fill-opacity:1;stroke:#ec0000;stroke-width:2.0134"
         d="m 2564.2879,479.67342 c -23.9596,-14.61042 -25.1728,-47.84948 -2.2541,-61.75961 24.9743,-15.15779 54.6195,1.57836 54.6409,30.84752 0.01,12.59872 -5.506,22.43676 -16.8719,30.09629 -9.2226,6.21512 -26.0276,6.60113 -35.5149,0.8158 z"
         id="path8791"
         transform="scale(0.26458333)" />
    </g>
</svg>
